<?xml version="1.0" standalone="no"?>
<!DOCTYPE svg PUBLIC "-//W3C//DTD SVG 20010904//EN"
 "http://www.w3.org/TR/2001/REC-SVG-20010904/DTD/svg10.dtd">
<svg version="1.0" xmlns="http://www.w3.org/2000/svg"
 width="234.000000pt" height="215.000000pt" viewBox="0 0 234.000000 215.000000"
 preserveAspectRatio="xMidYMid meet">

<g transform="translate(0.000000,215.000000) scale(0.100000,-0.100000)"
fill="#000000" stroke="none">
<path d="M350 1705 c0 -14 34 -138 186 -687 44 -158 64 -216 85 -240 l27 -33
122 -3 c67 -2 132 -1 145 2 39 10 63 56 105 207 23 79 48 169 56 199 11 37 18
50 24 40 4 -8 29 -91 54 -185 75 -270 70 -265 259 -265 l123 0 29 30 c24 25
44 88 152 477 68 246 122 452 119 459 -5 14 -223 19 -243 6 -10 -6 -183 -610
-183 -638 0 -5 -4 -4 -9 2 -5 5 -46 144 -91 309 -45 165 -83 308 -86 317 -5
16 -19 17 -129 15 -68 -1 -125 -4 -127 -7 -3 -3 -28 -93 -57 -200 -84 -312
-113 -414 -122 -424 -4 -5 -12 9 -19 30 -6 22 -45 165 -88 319 l-78 280 -127
3 c-109 2 -127 0 -127 -13z"/>
<path d="M350 480 l0 -150 25 0 25 0 0 150 0 150 -25 0 -25 0 0 -150z"/>
<path d="M1660 486 c0 -163 -4 -156 86 -156 46 0 59 4 81 26 23 23 25 31 21
90 -5 78 -19 95 -84 99 l-49 3 -3 41 c-3 36 -6 41 -28 41 l-24 0 0 -144z m128
2 c30 -30 5 -118 -33 -118 -38 0 -45 12 -45 71 l0 59 33 0 c18 0 38 -5 45 -12z"/>
<path d="M480 539 c-35 -15 -40 -26 -40 -101 0 -88 17 -108 93 -108 77 0 90
14 95 97 3 56 1 72 -15 91 -21 26 -94 38 -133 21z m91 -63 c16 -34 3 -93 -21
-101 -36 -12 -60 12 -60 58 0 24 5 48 12 55 21 21 57 14 69 -12z"/>
<path d="M710 539 c-35 -14 -40 -26 -40 -99 0 -94 13 -110 96 -110 57 0 64 2
64 20 0 17 -7 20 -43 20 -54 0 -67 13 -67 65 0 52 13 65 67 65 35 0 43 3 43
19 0 29 -68 41 -120 20z"/>
<path d="M914 543 c-12 -2 -24 -13 -27 -24 -5 -17 0 -19 43 -19 48 0 78 -18
65 -40 -3 -5 -28 -10 -54 -10 -55 0 -71 -12 -71 -56 0 -53 21 -65 104 -62 l71
3 3 75 c4 103 -1 117 -46 129 -38 11 -50 12 -88 4z m84 -145 c-2 -17 -11 -24
-32 -26 -33 -4 -51 10 -43 32 4 11 19 16 42 16 32 0 36 -3 33 -22z"/>
<path d="M1478 539 c-35 -13 -53 -69 -44 -133 9 -59 33 -76 108 -76 51 0 58 2
58 20 0 16 -7 20 -32 20 -50 0 -76 10 -81 31 -5 17 1 19 64 19 l69 0 0 39 c0
22 -7 48 -17 60 -21 24 -86 35 -125 20z m86 -55 c11 -29 6 -34 -32 -34 -46 0
-55 6 -41 31 12 24 64 26 73 3z"/>
<path d="M1080 538 c0 -2 13 -48 29 -103 l28 -100 39 0 c38 0 39 1 53 50 l14
50 16 -50 c15 -47 18 -50 53 -53 35 -3 37 -1 47 35 6 21 19 68 29 106 l19 67
-27 0 c-26 0 -29 -5 -46 -70 -10 -38 -20 -67 -23 -64 -3 3 -13 33 -21 67 -15
58 -18 62 -46 65 -29 3 -31 1 -43 -50 -18 -84 -27 -88 -45 -25 -9 30 -16 60
-16 66 0 6 -13 11 -30 11 -16 0 -30 -1 -30 -2z"/>
</g>
</svg>
